<svg width="48" height="48" viewBox="0 0 48 48" fill="none" xmlns="http://www.w3.org/2000/svg">
<path d="M26.1 43.9V40.9C27.6 40.7 29.0583 40.3083 30.475 39.725C31.8917 39.1416 33.2167 38.3666 34.45 37.4L36.5 39.6C34.9667 40.8666 33.3333 41.85 31.6 42.55C29.8667 43.25 28.0333 43.7 26.1 43.9ZM39.55 36.5L37.4 34.45C38.3 33.25 39.05 31.9583 39.65 30.575C40.25 29.1916 40.6667 27.7 40.9 26.1H43.95C43.6833 28.1 43.175 29.975 42.425 31.725C41.675 33.475 40.7167 35.0666 39.55 36.5ZM40.9 21.9C40.6667 20.3 40.25 18.8166 39.65 17.45C39.05 16.0833 38.3 14.7833 37.4 13.55L39.55 11.5C40.8167 13.1666 41.7833 14.8166 42.45 16.45C43.1167 18.0833 43.6167 19.9 43.95 21.9H40.9ZM21.85 43.9C16.7833 43.3333 12.55 41.1583 9.14999 37.375C5.74999 33.5916 4.04999 29.1333 4.04999 24C4.04999 18.8666 5.74999 14.4083 9.14999 10.625C12.55 6.84164 16.7833 4.66664 21.85 4.09998V7.09998C17.6167 7.66664 14.0917 9.55831 11.275 12.775C8.45832 15.9916 7.04999 19.7333 7.04999 24C7.04999 28.2666 8.45832 32.0083 11.275 35.225C14.0917 38.4416 17.6167 40.3333 21.85 40.9V43.9ZM34.5 10.6C33.2 9.69998 31.8417 8.95831 30.425 8.37498C29.0083 7.79164 27.6 7.36664 26.2 7.09998V4.09998C28 4.36664 29.7833 4.84998 31.55 5.54998C33.3167 6.24998 34.9667 7.19998 36.5 8.39998L34.5 10.6ZM24 34.55C21.1667 32.15 19.0667 29.925 17.7 27.875C16.3333 25.825 15.65 23.9333 15.65 22.2C15.65 19.5666 16.4917 17.475 18.175 15.925C19.8583 14.375 21.8 13.6 24 13.6C26.2 13.6 28.1417 14.375 29.825 15.925C31.5083 17.475 32.35 19.5666 32.35 22.2C32.35 23.9333 31.6667 25.825 30.3 27.875C28.9333 29.925 26.8333 32.15 24 34.55ZM24 24.1C24.6333 24.1 25.1667 23.8833 25.6 23.45C26.0333 23.0166 26.25 22.4833 26.25 21.85C26.25 21.2833 26.0333 20.7666 25.6 20.3C25.1667 19.8333 24.6333 19.6 24 19.6C23.3667 19.6 22.8333 19.8333 22.4 20.3C21.9667 20.7666 21.75 21.2833 21.75 21.85C21.75 22.4833 21.9667 23.0166 22.4 23.45C22.8333 23.8833 23.3667 24.1 24 24.1Z" fill="#FF7A00"/>
</svg>
