<svg width="54" height="57" viewBox="0 0 54 57" fill="none" xmlns="http://www.w3.org/2000/svg">
<g clip-path="url(#clip0_6_44)">
<path d="M11.9552 15.7698H13.948V41.3856H27.6901V43.3785H11.9552V15.7698ZM6.26746 15.7698H8.26026V46.16H27.6901V48.1528H6.26746V15.7698Z" fill="#F4C79D"/>
<path d="M9.34123 18.3838H11.334V43.9997H25.0761V45.9925H9.34123V18.3838ZM3.65344 18.3838H5.64625V48.774H25.0761V50.7669H3.65344V18.3838Z" fill="#F19744"/>
<mask id="mask0_6_44" style="mask-type:luminance" maskUnits="userSpaceOnUse" x="28" y="16" width="26" height="41">
<path d="M54 16.9517H28.8917V56.4075H54V16.9517Z" fill="white"/>
</mask>
<g mask="url(#mask0_6_44)">
<path d="M31.8265 51.4348V28.6244H36.1418V16.9517H46.3423V35.4057H50.6575V51.4348H42.6284V44.6535H39.8558V51.4348H31.8265ZM33.3957 48.9687H36.1418V44.6535H33.3957V48.9687ZM33.3957 42.1874H36.1418V37.8719H33.3957V42.1874ZM33.3957 35.4057H36.1418V31.0904H33.3957V35.4057ZM37.7113 42.1874H40.4574V37.8719H37.7113V42.1874ZM37.7113 35.4057H40.4574V31.0904H37.7113V35.4057ZM37.7113 28.6244H40.4574V21.6799H37.7113V28.6244ZM42.0268 42.1874H44.7729V37.8719H42.0268V42.1874ZM42.0268 35.4057H44.7729V31.0904H42.0268V35.4057ZM42.0268 28.6244H44.7729V21.6799H42.0268V28.6244ZM46.3423 48.9687H49.0884V44.6535H46.3423V48.9687ZM46.3423 42.1874H49.0884V37.8719H46.3423V42.1874Z" fill="white"/>
</g>
</g>
<defs>
<clipPath id="clip0_6_44">
<rect width="54" height="56.4076" fill="white"/>
</clipPath>
</defs>
</svg>
