<svg width="157" height="172" viewBox="0 0 157 172" fill="none" xmlns="http://www.w3.org/2000/svg">
<path d="M6.87012 171V169.646L8.62109 169.346V157.024L6.87012 156.724V155.359H18.4502V159.119H16.7529L16.5166 156.992H10.7373V162.084H16.5059V163.749H10.7373V169.41H16.8604L17.0967 167.251H18.7832V171H6.87012ZM20.9209 171V169.646L22.6719 169.346V157.024L20.9209 156.724V155.359H22.6719H24.8096L32.4795 167.552L32.5439 167.53V157.024L30.6211 156.724V155.359H34.4883H36.2393V156.724L34.4883 157.024V171H32.5547L24.6807 158.743L24.6162 158.765V169.346L26.5391 169.646V171H20.9209ZM45.0586 171.226C43.612 171.226 42.3587 170.893 41.2988 170.227C40.2389 169.553 39.4225 168.622 38.8496 167.434C38.2767 166.245 37.9902 164.87 37.9902 163.309V163.051C37.9902 161.475 38.2767 160.097 38.8496 158.915C39.4297 157.726 40.221 156.799 41.2236 156.133C42.2262 155.467 43.3649 155.134 44.6396 155.134C45.8571 155.134 46.8883 155.273 47.7334 155.553C48.5856 155.832 49.3125 156.208 49.9141 156.681V159.839H48.1738L47.9482 157.572C47.5973 157.343 47.1676 157.171 46.6592 157.057C46.1507 156.935 45.5492 156.874 44.8545 156.874C43.9593 156.874 43.1536 157.132 42.4375 157.647C41.7214 158.163 41.1556 158.883 40.7402 159.807C40.3249 160.723 40.1172 161.798 40.1172 163.029V163.309C40.1172 164.555 40.307 165.643 40.6865 166.574C41.0732 167.498 41.6354 168.218 42.373 168.733C43.1107 169.242 44.0059 169.496 45.0586 169.496C45.7747 169.496 46.3799 169.435 46.874 169.313C47.3682 169.185 47.805 169.02 48.1846 168.819V165.146L45.1875 165.038V163.48H50.3008V169.539C49.8496 169.962 49.2015 170.348 48.3564 170.699C47.5186 171.05 46.4193 171.226 45.0586 171.226ZM52.46 171V169.646L54.2109 169.346V157.024L52.46 156.724V155.359H64.04V159.119H62.3428L62.1064 156.992H56.3271V162.084H62.0957V163.749H56.3271V169.41H62.4502L62.6865 167.251H64.373V171H52.46ZM66.5107 171V169.646L68.2617 169.346V157.024L66.5107 156.724V155.359H68.2617H70.3994L78.0693 167.552L78.1338 167.53V157.024L76.2109 156.724V155.359H80.0781H81.8291V156.724L80.0781 157.024V171H78.1445L70.2705 158.743L70.2061 158.765V169.346L72.1289 169.646V171H66.5107ZM83.5908 171V169.646L85.3418 169.346V157.024L83.5908 156.724V155.359H89.209V156.724L87.458 157.024V162.428H94.9346V157.024L93.1836 156.724V155.359H94.9346H97.0508H98.8018V156.724L97.0508 157.024V169.346L98.8018 169.646V171H93.1836V169.646L94.9346 169.346V164.093H87.458V169.346L89.209 169.646V171H83.5908ZM100.424 171V169.646L101.584 169.485L107.052 155.359H108.867L114.238 169.485L115.388 169.646V171H110.897V169.646L112.079 169.442L111.048 166.563H104.785L103.722 169.442L104.903 169.646V171H100.424ZM105.44 164.791H110.403L108.104 158.432L107.976 158.077H107.911L107.782 158.432L105.44 164.791ZM117.021 171V169.646L118.771 169.346V157.024L117.021 156.724V155.37H123.992C125.131 155.37 126.09 155.542 126.871 155.886C127.659 156.222 128.257 156.713 128.665 157.357C129.073 158.002 129.277 158.79 129.277 159.721C129.277 160.637 129.077 161.407 128.676 162.03C128.282 162.653 127.72 163.126 126.989 163.448C126.259 163.763 125.392 163.932 124.39 163.953L120.888 164.018V169.346L122.639 169.646V171H117.021ZM127.344 171L123.863 163.19L125.979 163.169L128.869 169.421L129.954 169.614V171H127.344ZM120.888 162.353H123.777C124.959 162.353 125.818 162.127 126.355 161.676C126.893 161.225 127.161 160.566 127.161 159.699C127.161 158.876 126.903 158.224 126.388 157.744C125.872 157.264 125.074 157.024 123.992 157.024H120.888V162.353ZM131.909 171V169.646L133.66 169.346V157.024L131.909 156.724V155.359H137.527V156.724L135.776 157.024V169.346L137.527 169.646V171H131.909ZM139.16 171V169.646L140.32 169.485L145.788 155.359H147.604L152.975 169.485L154.124 169.646V171H149.634V169.646L150.815 169.442L149.784 166.563H143.521L142.458 169.442L143.64 169.646V171H139.16ZM144.177 164.791H149.14L146.841 158.432L146.712 158.077H146.647L146.519 158.432L144.177 164.791Z" fill="white"/>
<path d="M34.7588 45.8494H40.5527V120.325H80.5063V126.119H34.7588V45.8494ZM18.2221 45.8494H24.016V134.206H80.5063V140H18.2221V45.8494Z" fill="#F4C79D"/>
<path d="M27.1588 53.4494H32.9527V127.925H72.9064V133.719H27.1588V53.4494ZM10.6221 53.4494H16.416V141.806H72.9064V147.6H10.6221V53.4494Z" fill="#F19744"/>
<g clip-path="url(#clip0_1_67)">
<path d="M92.5325 149.542V83.2229H105.079V49.2856H134.736V102.939H147.282V149.542H123.938V129.826H115.877V149.542H92.5325ZM97.095 142.372H105.079V129.826H97.095V142.372ZM97.095 122.656H105.079V110.109H97.095V122.656ZM97.095 102.939H105.079V90.3926H97.095V102.939ZM109.642 122.656H117.626V110.109H109.642V122.656ZM109.642 102.939H117.626V90.3926H109.642V102.939ZM109.642 83.2229H117.626V63.0324H109.642V83.2229ZM122.189 122.656H130.173V110.109H122.189V122.656ZM122.189 102.939H130.173V90.3926H122.189V102.939ZM122.189 83.2229H130.173V63.0324H122.189V83.2229ZM134.736 142.372H142.72V129.826H134.736V142.372ZM134.736 122.656H142.72V110.109H134.736V122.656Z" fill="white" fill-opacity="0.9"/>
</g>
<defs>
<clipPath id="clip0_1_67">
<rect width="73" height="114.714" fill="white" transform="translate(84 49.2856)"/>
</clipPath>
</defs>
</svg>
